<svg width="521" height="520" viewBox="0 0 521 520" fill="none" xmlns="http://www.w3.org/2000/svg">
<path fill-rule="evenodd" clip-rule="evenodd" d="M-176.806 501.65C-175.541 511.771 -166.06 519.51 -155.314 519.51H579.515C591.525 519.51 601.007 510.283 601.007 499.269C601.007 491.529 596.582 484.98 589.945 481.408L-116.755 34.0044V151.883C36.2158 284.646 166.115 439.734 -158.158 479.027C-170.168 480.515 -178.386 490.636 -176.806 501.65Z" fill="url(#paint0_linear_1_438)" fill-opacity="0.5"/>
<path fill-rule="evenodd" clip-rule="evenodd" d="M793.485 -11.2415H58.6558C46.6457 -11.2415 37.1641 -2.01357 37.1641 9.00037C37.1641 16.7399 41.5888 23.2887 48.226 26.8608L785.267 502.544V382.283C620.919 245.056 450.249 71.2142 796.329 29.2422C808.023 27.7538 816.557 17.6329 814.977 6.61897C813.396 -3.79961 804.231 -11.2415 793.485 -11.2415Z" fill="url(#paint1_linear_1_438)" fill-opacity="0.9"/>
<defs>
<linearGradient id="paint0_linear_1_438" x1="-193.268" y1="248.007" x2="589.151" y2="715.189" gradientUnits="userSpaceOnUse">
<stop stop-color="white" stop-opacity="0.34"/>
<stop offset="0.5206" stop-color="#009BD9" stop-opacity="0"/>
<stop offset="0.8465" stop-color="white"/>
<stop offset="0.926512" stop-color="white"/>
<stop offset="1" stop-color="white"/>
</linearGradient>
<linearGradient id="paint1_linear_1_438" x1="44.5673" y1="-150.311" x2="826.986" y2="316.872" gradientUnits="userSpaceOnUse">
<stop stop-color="#58C0E1" stop-opacity="0"/>
<stop offset="0.5206" stop-color="#009BD9" stop-opacity="0.64"/>
<stop offset="0.8465" stop-color="#42B6E0" stop-opacity="0"/>
<stop offset="1" stop-color="#5FC4E1" stop-opacity="0"/>
</linearGradient>
</defs>
</svg>
