<svg width="54" height="55" viewBox="0 0 54 55" fill="none" xmlns="http://www.w3.org/2000/svg">
<path d="M26.6462 0.853821C11.96 0.853821 0 12.8138 0 27.5C0 42.1862 11.96 54.1462 26.6462 54.1462C41.3324 54.1462 53.2924 42.1862 53.2924 27.5C53.293 12.8138 41.3331 0.853821 26.6462 0.853821ZM38.2344 25.7041C37.8625 26.0759 37.3667 26.2619 36.9329 26.2619C36.4991 26.2619 36.0032 26.0759 35.6314 25.7041L28.5056 18.6396V40.8859C28.5056 41.9395 27.6999 42.7451 26.6463 42.7451C25.5928 42.7451 24.7871 41.9394 24.7871 40.8859V18.5774L17.7231 25.7039C17.3513 26.0758 16.8555 26.2617 16.4216 26.2617C15.9878 26.2617 15.492 26.0758 15.1202 25.7039C14.3765 24.9602 14.3765 23.7827 15.1202 23.101L25.3449 12.8763C25.7167 12.5044 26.2125 12.3185 26.6463 12.3185C27.1421 12.3185 27.576 12.5044 27.9478 12.8763L38.1725 23.101C38.9162 23.7827 38.9161 24.9603 38.2344 25.7041Z" fill="white"/>
</svg>
