<svg width="57" height="73" viewBox="0 0 57 73" fill="none" xmlns="http://www.w3.org/2000/svg">
<path d="M50.7988 32.16C48.0359 31.1457 44.4773 30.533 42.0378 28.9439C39.3196 27.1739 38.9869 28.902 42.5662 25.3597C47.4613 20.5164 51.6924 14.738 56.1887 9.50363C56.2886 9.38732 56.2625 9.27167 56.1891 9.15902C56.2396 8.98378 56.0696 8.79488 55.4701 8.61357C46.4153 5.88118 37.3611 3.14798 28.3064 0.414625C27.684 0.226939 26.248 -0.0329926 25.7503 0.629891C17.1996 12.03 8.64882 23.4301 0.09786 34.8302C-0.322972 35.3907 0.925003 35.7826 1.21931 35.8294C5.99817 36.5851 10.8553 37.747 15.6729 38.1152C20.9431 38.5188 18.4587 38.4065 15.9776 43.4403C11.3827 52.7654 6.78802 62.0895 2.19314 71.4141C1.60723 72.6025 4.87891 72.5877 5.46705 72.0886C20.8161 59.0757 36.1651 46.0623 51.515 33.0507C51.9524 32.6829 50.9779 32.2273 50.7991 32.1616L50.7988 32.16ZM32.0341 46.1171C24.1527 52.7986 16.2717 59.4812 8.39013 66.1632C12.9409 56.9279 17.4916 47.6928 22.0418 38.4591C22.3417 37.8511 21.3366 37.526 20.9204 37.4599C17.1011 36.8555 13.2816 36.252 9.46233 35.6476C8.18587 35.4452 5.2475 35.5385 3.85525 34.9194C3.9675 34.8025 4.08108 34.6453 4.19448 34.4125C7.8677 26.8604 15.2228 19.7085 20.2594 12.9943C22.3525 10.2028 26.2886 6.4938 27.6047 3.20091C27.8132 2.67971 28.1784 2.29155 28.4753 2.01296C28.9297 2.18078 29.3527 2.35748 29.5752 2.45856C36.5882 5.65926 44.9518 7.21894 52.4435 9.37958C47.1013 15.5977 41.7588 21.8158 36.4162 28.0351C36.054 28.457 36.8829 28.8327 37.1347 28.9252C39.9687 29.9655 43.2851 30.6587 45.8957 32.1413C46.6243 32.5556 47.1364 32.7507 47.4953 32.8336C47.328 32.9608 47.1443 33.1566 46.9549 33.4695C44.0882 38.2109 36.2183 42.5708 32.0341 46.1185L32.0341 46.1171Z" fill="#009BD9"/>
</svg>
