<svg width="69" height="73" viewBox="0 0 69 73" fill="none" xmlns="http://www.w3.org/2000/svg">
<path d="M69 22.0924V14.4081C69 6.33975 55.9669 0 39.2917 0C22.6166 0 9.58349 6.33975 9.58349 14.4081V21.9964C3.64164 24.5895 0 28.4319 0 32.6579V40.3421C0 44.6646 3.64164 48.4105 9.58349 51.0036L9.5827 58.5919C9.5827 66.6603 22.6158 73 39.2909 73C55.9657 73 68.9992 66.6603 68.9992 58.5919V50.9076C68.9992 46.5851 65.3575 42.8392 59.4157 40.2462V32.7544C65.3584 30.1606 69 26.4147 69 22.0922L69 22.0924ZM67.0831 58.5919C67.0831 60.5131 66.0286 62.3377 64.2082 64.0664V58.8795L64.4959 58.5911C65.454 57.8226 66.3164 56.9582 67.0831 56.094L67.0831 58.5919ZM11.4993 56.0947C12.1704 56.9591 13.0328 57.8235 14.0864 58.5919C14.1821 58.6877 14.2777 58.7836 14.3742 58.8803V64.0672C12.5537 62.4343 11.4993 60.6089 11.4993 58.5927L11.4993 56.0947ZM16.2903 65.5076V60.1288C17.1527 60.609 18.1108 61.0891 19.1652 61.57V67.0445C18.1115 66.5636 17.1535 66.0835 16.2903 65.5075V65.5076ZM21.0822 67.909V62.3378C22.0402 62.722 22.999 63.0104 23.9571 63.298V68.965C22.9034 68.5807 21.9446 68.2931 21.0822 67.9089V67.909ZM25.874 69.446V63.779C26.8321 63.9707 27.7909 64.1633 28.7489 64.355V70.1179C27.7909 69.9262 26.832 69.7337 25.874 69.4461V69.446ZM30.6659 70.4062V64.6433C31.6239 64.7392 32.5827 64.835 33.5408 65.0275V70.7905C32.5827 70.6946 31.6239 70.598 30.6659 70.4062ZM38.3326 71.0789C37.3746 71.0789 36.4157 70.983 35.4577 70.983V65.2201C36.4158 65.3159 37.3746 65.3159 38.3326 65.3159V71.0789ZM62.2898 60.129V65.5078C61.4274 66.0838 60.4694 66.5647 59.4149 67.1407V61.6662C60.4694 61.0894 61.4274 60.6093 62.2898 60.1292V60.129ZM57.498 62.3379V67.9092C56.6356 68.2934 55.6775 68.5818 54.6231 68.9661V63.2991C55.5811 63.0107 56.54 62.7223 57.498 62.3381V62.3379ZM52.7061 63.7791V69.4461C51.7481 69.6378 50.7893 69.9262 49.8312 70.1187V64.4517C50.7901 64.2592 51.7481 64.0667 52.7061 63.7791ZM47.9151 64.7393V70.5022C46.9571 70.5981 45.9982 70.7906 45.0402 70.8865V65.1236C45.9982 64.931 46.9563 64.8352 47.9151 64.7393ZM43.1232 65.2194V70.9823C42.1652 71.0782 41.2064 71.0782 40.2483 71.0782V65.3153C41.2064 65.3153 42.1644 65.2194 43.1232 65.2194ZM61.0439 58.5921C55.8688 61.4735 48.0108 63.3949 39.2904 63.3949C30.5691 63.3949 22.7112 61.4736 17.5368 58.5921C14.183 56.6708 11.9783 54.3661 11.595 51.8682C16.5781 53.6928 22.8077 54.7496 29.7077 54.7496C45.041 54.7496 57.3074 49.3709 59.1286 42.2628C64.016 44.5683 67.0831 47.5457 67.0831 50.9072C67.0831 53.7895 64.7829 56.4793 61.0455 58.5923L61.0439 58.5921ZM52.7061 41.8793V47.2581C51.8437 47.834 50.8857 48.315 49.8312 48.8909V43.4164C50.8857 42.8396 51.8437 42.3596 52.7061 41.8794V41.8793ZM47.9151 44.0882V49.6595C47.0527 50.0437 46.0947 50.3321 45.0402 50.7163V45.0494C45.9982 44.761 46.9563 44.4726 47.9151 44.0883V44.0882ZM43.1232 45.5293V51.1963C42.1652 51.3881 41.2064 51.6765 40.2483 51.869V46.202C41.2064 46.0095 42.1644 45.8169 43.1232 45.5293ZM38.3314 46.4896V52.2525C37.3734 52.3484 36.4145 52.5409 35.4565 52.6367V46.8738C36.4145 46.6813 37.3726 46.5854 38.3314 46.4896ZM33.5396 46.9697V52.7326C32.5815 52.8285 31.6227 52.8285 30.6646 52.8285V47.0656C31.6227 47.0656 32.5815 46.9697 33.5396 46.9697ZM11.4987 47.4498V44.0883C11.882 44.1841 12.2654 44.3767 12.5531 44.4725C12.9365 44.5684 13.2242 44.6642 13.6076 44.8568C13.8953 44.9526 14.0866 45.0485 14.3744 45.0485V50.6197C13.4163 50.3314 12.4575 50.0438 11.5952 49.6595C11.5952 49.6595 11.4995 49.6595 11.4995 49.5637L11.4987 47.4498ZM16.2897 51.1965V45.5295C17.2478 45.7212 18.2066 45.9138 19.1646 46.1055V51.8684C18.2066 51.6767 17.2485 51.4842 16.2897 51.1966V51.1965ZM21.0816 52.1567V46.3938C22.0396 46.4897 22.9984 46.5855 23.9565 46.778V52.541C22.9984 52.4451 22.0404 52.3485 21.0816 52.1567ZM28.7483 52.8294C27.7903 52.8294 26.8314 52.7335 25.8734 52.7335V46.9706C26.8315 47.0664 27.7903 47.0664 28.7483 47.0664V52.8294ZM9.58193 43.3197V48.7943C8.52747 48.3141 7.56942 47.7374 6.70703 47.1614V41.7826C7.56942 42.3594 8.52747 42.8395 9.58193 43.3196V43.3197ZM1.91518 37.8452C2.58628 38.7096 3.44867 39.5739 4.50233 40.3423C4.59798 40.4382 4.69363 40.5341 4.79007 40.6307V45.8177C2.96963 44.1848 1.91516 42.3594 1.91516 40.3431L1.91518 37.8452ZM54.239 38.4212C53.9513 38.7096 53.5679 38.9013 53.281 39.1897C52.8976 39.4781 52.5142 39.6698 52.1308 39.9582C51.8431 40.1499 51.6518 40.2466 51.3641 40.4383C46.189 43.3198 38.331 45.2411 29.6105 45.2411C25.0109 45.2411 20.6024 44.6651 16.7687 43.8C16.2896 43.7041 15.9063 43.6082 15.5229 43.5116C15.1395 43.4157 14.7562 43.3198 14.3728 43.1273C11.9769 42.3588 9.8687 41.4945 8.04747 40.4375C4.31011 38.3246 2.00991 35.6348 2.00991 32.7533C2.00991 29.4875 5.07685 26.4135 9.96441 24.1089C11.8813 31.2171 24.1477 36.5957 39.3853 36.5957C46.2853 36.5957 52.5141 35.5388 57.498 33.7142C57.1146 35.3479 55.9645 36.9807 54.2396 38.4211L54.239 38.4212ZM39.289 1.9217C54.3347 1.9217 67.0809 7.58869 67.0809 14.4085C67.0809 17.29 64.7807 19.9798 61.0433 22.0928C59.2229 23.1496 57.1139 24.014 54.718 24.7826C54.3346 24.8784 53.9512 24.9743 53.5679 25.1668C53.1845 25.2627 52.7055 25.3585 52.3221 25.4552C48.4892 26.4154 44.0806 26.8963 39.4802 26.8963C30.759 26.8963 22.901 24.9751 17.7267 22.0935C17.439 21.9018 17.2477 21.8052 16.9599 21.6134C16.5766 21.4217 16.1932 21.1333 15.8098 20.8449C15.4264 20.5565 15.1387 20.3648 14.8518 20.0764C12.8393 18.3477 11.5934 16.4265 11.5934 14.3135C11.4985 7.5888 24.244 1.9216 39.2902 1.9216L39.289 1.9217ZM67.0809 22.0928C67.0809 24.014 66.0264 25.8386 64.206 27.5673V22.3804C64.3016 22.2845 64.3973 22.1886 64.4937 22.092C65.4517 21.3235 66.3141 20.4591 67.0809 19.5948L67.0809 22.0928ZM57.4974 27.4715V31.4091C57.4974 31.4091 57.4017 31.4091 57.4017 31.505C56.5393 31.8892 55.5813 32.1776 54.6225 32.4652V26.8939C54.9103 26.7981 55.1016 26.7022 55.3893 26.7022C55.7727 26.6063 56.0604 26.5105 56.4438 26.318C56.8271 26.2221 57.2105 26.0296 57.4982 25.9337L57.4974 27.4715ZM38.331 28.816V34.579C37.373 34.579 36.4141 34.4831 35.4561 34.4831V28.7202C36.4141 28.7202 37.3722 28.816 38.331 28.816ZM33.5391 28.5284V34.2914C32.5811 34.1955 31.6223 34.0996 30.6642 33.9071V28.1442C31.6223 28.3359 32.5811 28.4318 33.5391 28.5284ZM28.7473 27.9516V33.6186C27.7893 33.4269 26.8304 33.2344 25.8724 32.946V27.279C26.8304 27.5674 27.7893 27.7599 28.7473 27.9516ZM23.9555 26.7989V32.4659C22.901 32.1775 21.9429 31.7933 21.0805 31.409V25.8378C22.0394 26.2228 22.9974 26.5112 23.9555 26.7988V26.7989ZM19.1636 25.0702V30.5447C18.1091 30.0646 17.1511 29.4878 16.2887 28.9118V23.533C17.1519 24.1098 18.1099 24.5899 19.1636 25.07V25.0702ZM52.7045 27.2799V32.9469C51.7465 33.1386 50.7876 33.427 49.8296 33.6195V27.9525C50.7884 27.76 51.7465 27.5675 52.7045 27.2799ZM47.9135 28.2401V34.0031C46.9554 34.0989 45.9966 34.2915 45.0386 34.3873V28.6244C45.9966 28.4319 46.9547 28.336 47.9135 28.2401ZM43.1216 28.7203V34.4832C42.1636 34.579 41.2047 34.579 40.2467 34.579V28.8161C41.2048 28.8161 42.1628 28.7203 43.1216 28.7203ZM59.4131 25.0703C60.4676 24.5902 61.4256 24.1101 62.288 23.6292V29.0079C61.4256 29.5839 60.4676 30.0648 59.4131 30.6408V25.0703ZM11.4967 19.5958C11.7844 19.98 12.1677 20.4601 12.5511 20.8444C12.8389 21.1328 13.1258 21.3245 13.4135 21.6129C13.6048 21.8046 13.7969 21.9971 14.0846 22.093C14.1803 22.1889 14.2759 22.2847 14.3723 22.2847V27.4717C12.9345 26.1272 11.9764 24.6861 11.5932 23.2457C11.4975 22.9573 11.4975 22.5731 11.4975 22.1888V21.9971V21.1327L11.4967 19.5958ZM57.4968 40.3422V40.534C57.4968 40.9182 57.4011 41.2066 57.4011 41.5908C57.1134 43.1278 56.1554 44.5682 54.6219 45.8168V40.6299C54.7176 40.534 54.8132 40.4382 54.9097 40.4382C55.1009 40.2464 55.293 40.0539 55.5808 39.958C55.8685 39.6697 56.1554 39.4779 56.4432 39.1895C56.8265 38.8053 57.2099 38.421 57.4976 37.9409V39.5738L57.4968 40.3422Z" fill="#009BD9"/>
</svg>
